<svg id="Layer_1" data-name="Layer 1" xmlns="http://www.w3.org/2000/svg" viewBox="0 0 640 440"><defs><style>.cls-1{fill:#3f8bbf;}</style></defs><title>freeside</title><path class="cls-1" d="M3,431.91q-.65-3.26,3.89-10.72,4.56-7.14,29.88-55.85,9.74-17.86,23.38-45.14Q67.28,305.91,90,262.4q1-1.63,3.24-6c1.52-2.93,3.52-6.71,6-11.37s4.6-8.71,6.33-12.18q4.55-8.76,10.23-19.64t10.88-20.95c.86-1.51,1.68-3.08,2.44-4.71a44.54,44.54,0,0,1,2.11-4.06,32.25,32.25,0,0,0,1.78-3.41,20,20,0,0,1,1.47-2.76q-7.8,2-17.87,3.57-9.42,2-25.65,5.53H90a227.06,227.06,0,0,1-22.57,4.06,89.91,89.91,0,0,1-15.1.81q-8.13-.33-11-2.6-7.48-5.19-3.58-14A33.19,33.19,0,0,1,46,163q5.35-4.87,10.22-3.9h.33A6.22,6.22,0,0,1,60,160.91a11.17,11.17,0,0,1,2.27,3.25,9,9,0,0,1,.81,3.74,2.88,2.88,0,0,0,.33,1.3q2-.33,21.92-3.9t39.78-7.63q19.8-4.06,22.08-4.71,1.29-1.29,4.55-7.8,2.91-5.83,19.81-37.34,10.38-19.15,13.31-24.68c-2.82.44-6.71,1-11.69,1.62Q159.51,87,146.52,89t-22.41,2.59a5.58,5.58,0,0,1-1.78.33,5.93,5.93,0,0,0-1.46.16q-.66.17-1.47.33a6.75,6.75,0,0,1-1.29.16,6.75,6.75,0,0,0-1.3.16,6.8,6.8,0,0,1-1.14.16,4.86,4.86,0,0,0-1,.16,4.53,4.53,0,0,1-1,.17,11.32,11.32,0,0,1-2.43.48c-1,.11-2.23.22-3.74.33s-2.92.16-4.22.16a46.17,46.17,0,0,1-6.49.16,8.55,8.55,0,0,1-3.9-1.13l-.33-.33a8.66,8.66,0,0,1-4.38-7A12.22,12.22,0,0,1,91,77a12.75,12.75,0,0,1,3.73-3.09,16.67,16.67,0,0,1,5.2-1.62c2.06-.32,5.14-.59,9.26-.81q8.76-1,14.12-1.46T142,67.88q7.14-1,29.39-4.55t27.12-4.55A61.06,61.06,0,0,0,202.7,52Q215,30.54,226.41,16.57T245.24,1a18.45,18.45,0,0,1,6.33-.81,11.87,11.87,0,0,1,6,2.11A14.65,14.65,0,0,1,263.1,9.1a21.5,21.5,0,0,1,0,15.59,13.71,13.71,0,0,1-2.6,3.57,13.49,13.49,0,0,1-3.57,2.6,10.78,10.78,0,0,1-7.63.48,8.31,8.31,0,0,1-5.68-4.71,162.53,162.53,0,0,0-10.07,13.65q-6.18,9.09-9.42,14.28,3.57-.64,10.39-1.62,60.41-9.42,99.37-7.14a76.08,76.08,0,0,1,10.07.81,6.87,6.87,0,0,1,3.9,2.43v.33q5.19,6.81,0,14a14.64,14.64,0,0,1-6,5q-3.41,1.47-14.13,3.41-8.76,2-20.13,4.87-9.73,2.61-12.67,2.6a7.55,7.55,0,0,1-6.16-2.76,9.89,9.89,0,0,1-1.95-7.3v-.33q-2.93-.31-32.48,2.92-6.5,1-16.23,2.6l-17.54,2.92q-7.8,1.3-10.07,1.95-2,3.58-10.06,18.19t-16.56,30q-8.46,15.42-11.05,20.62c1.3-.22,2.82-.54,4.55-1h1q14-3.24,27.61-5.84t25-4.39q11.37-1.77,21.11-3.08L263.75,132c5-.75,8-1.14,9.09-1.14q11-1,19.16-1a20.13,20.13,0,0,0,2.92-.32,38.22,38.22,0,0,1,4.23.16,24.84,24.84,0,0,0,3.08.16,12.73,12.73,0,0,1,2.44.16,8,8,0,0,1,1.3.49,17.46,17.46,0,0,1,1.62,1,9.45,9.45,0,0,1,3.25,7.31,12.25,12.25,0,0,1-2.93,8,11.87,11.87,0,0,1-6,4.22q-3.42,1-12.18,1h-5.68c-2.06,0-3.79.06-5.2.17s-2.43.16-3.08.16c-1.3.22-2.76.44-4.39.65s-3.36.43-5.19.65-3.63.43-5.36.65-3.63.48-5.69.81-3.89.6-5.52.81-3.52.49-5.68.81-3.79.6-4.87.81-2.55.44-4.38.65-3,.33-3.41.33q-11.37,2-38.81,7.47t-32.63,6.82Q148.45,192.26,130,229q-3.25,5.84-8,15.1t-5.36,10.87q-15.9,29.9-23.7,45T79.3,326.69q-4.23,8.12-7.47,14.45t-4.71,9.26c-1,2-2.71,5.25-5.19,9.9s-4.28,8.17-5.36,10.56Q27.33,425.42,22.8,432.23q-3.59,5.52-8.12,7.31c-3,1.19-6.06.7-9.1-1.46C4.29,437,3.42,434.94,3,431.91Z"/><path class="cls-1" d="M202.38,297.79q-12.67-4.21-14.29-17.21c-.44-2.81-.12-6.5,1-11q2.26-10.4,12.34-22.73l1.95-2.6q-27.93,55.21-.33-.33v-.32l-1.29.65a.29.29,0,0,1-.33.32q-5.19,2.61-9.74.33-5.21-3.24-3.57-10.39.65-4.54,6.82-11.37t10.71-8.77a10.68,10.68,0,0,1,11,1,6.34,6.34,0,0,1,2.11,1.62,7.78,7.78,0,0,1,1.3,2.27,11.38,11.38,0,0,1,.65,2.6,11.76,11.76,0,0,1-.16,3.25v.32a37.64,37.64,0,0,0,6.82-.65,13.89,13.89,0,0,1,3.57-.64h2.44a5.46,5.46,0,0,1,2,.32,14.66,14.66,0,0,0,2.11.65q5.84,3.57,4.22,10.72a10.2,10.2,0,0,1-1.79,4.38,16.37,16.37,0,0,1-3.57,3.73q-2.12,1.63-4.71,3.25a53.77,53.77,0,0,0-10.88,7.79,66.38,66.38,0,0,0-8.28,8.77q-3.57,5.21-3.73,8.28c-.11,2.06.37,3.31,1.46,3.74a19.92,19.92,0,0,0,3.41.65,23.08,23.08,0,0,0,5.52,0,14.66,14.66,0,0,0,5-1.3,18.79,18.79,0,0,1,7.15-1.62,8.21,8.21,0,0,1,5.84,3.08,9,9,0,0,1,1.95,6.66q0,2.93-2.6,6.49a15.66,15.66,0,0,1-7.47,5.85,45.47,45.47,0,0,1-14,3.24Q207.24,299.42,202.38,297.79Z"/><path class="cls-1" d="M293.3,219.53a11.47,11.47,0,0,1,6.5,1.95q9.4,5.84,5.84,20.78a37.14,37.14,0,0,1-4.54,11.2,48.63,48.63,0,0,1-8.45,10.23,64.22,64.22,0,0,1-6.49,5,42.37,42.37,0,0,1-6.5,3.73,33.9,33.9,0,0,0,4.87.33c1.73,0,3.58-.05,5.52-.17s3.79-.27,5.53-.48c3.67-.65,6.38-.43,8.11.65a8.37,8.37,0,0,1,3.58,5,10.08,10.08,0,0,1-.33,6.66q-2.93,6.5-8.12,8.44-4.54,1.63-13.47,2.11t-13.81-.81q-11.69-2.6-17.21-11.69-4.54-6.5-4.54-15.91,0-14.62,14.29-30.53,14.61-15.59,26.62-16.56h2.6Zm-7.47,22.73a9,9,0,0,1-1,.81,6.92,6.92,0,0,1-1,.65,7.56,7.56,0,0,0-1,.65c-.44.33-.65.6-.65.81h-.32a26,26,0,0,0-3.09,2.76,46,46,0,0,0-3.41,3.74l1.3-.65A18.8,18.8,0,0,0,285.83,242.26Z"/><path class="cls-1" d="M361.82,219.53a11.47,11.47,0,0,1,6.5,1.95q9.4,5.84,5.84,20.78a37.17,37.17,0,0,1-4.55,11.2,48.27,48.27,0,0,1-8.44,10.23,64.22,64.22,0,0,1-6.49,5,42.37,42.37,0,0,1-6.5,3.73,34,34,0,0,0,4.87.33c1.73,0,3.57-.05,5.52-.17s3.79-.27,5.52-.48q5.52-1,8.12.65a8.41,8.41,0,0,1,3.58,5,10.14,10.14,0,0,1-.33,6.66q-2.93,6.5-8.12,8.44-4.54,1.63-13.47,2.11t-13.81-.81q-11.69-2.6-17.21-11.69-4.55-6.5-4.54-15.91,0-14.62,14.28-30.53,14.63-15.59,26.63-16.56h2.6Zm-7.47,22.73a9,9,0,0,1-1,.81,6.33,6.33,0,0,1-1,.65,7.63,7.63,0,0,0-1,.65c-.44.33-.65.6-.65.81h-.32a24.51,24.51,0,0,0-3.09,2.76,46,46,0,0,0-3.41,3.74l1.3-.65A18.8,18.8,0,0,0,354.35,242.26Z"/><path class="cls-1" d="M392.67,265q5.19-5.83,11.37-3.24,5.83,2.6,4.54,10.39v1a9,9,0,0,0,4.22-5.36q1-3.4.33-11.53-1.63-14.93.65-23.05a68.5,68.5,0,0,1,12.34-25.66q9.09-12,19.16-15.58,8.45-2.93,13.31.32,4.55,2.92,6.17,9.42a29.65,29.65,0,0,1,0,12.34v.32a14.65,14.65,0,0,1-.81,1.95,19.71,19.71,0,0,1-1.14,1.95,11.52,11.52,0,0,1-1.46,1.79c-.54.54-1.14,1.08-1.78,1.62a24.11,24.11,0,0,1-1.95,1.46,11.24,11.24,0,0,1-1.63.65,6,6,0,0,1-1.94.33,6.47,6.47,0,0,1-6.33-2.12,11.12,11.12,0,0,1-2.77-6.65l-.32.32a32,32,0,0,0-8.93,12.83,32.65,32.65,0,0,0-2.76,15.42c.86,8,1.3,13,1.3,14.94a45.1,45.1,0,0,1-1.3,8.77q-1.95,8.12-4.87,12.34-6.51,10.4-15.91,14-9.75,3.9-16.57-.32-10.06-5.85-6.49-20.78Q390.39,267.27,392.67,265Z"/><path class="cls-1" d="M483,224.72a8.08,8.08,0,0,1,6.82,3.58,9.18,9.18,0,0,1,1.62,7.79,4.07,4.07,0,0,1-.32,1.46c-.22.54-.44,1.09-.65,1.63a11.21,11.21,0,0,1-.82,1.62,16.81,16.81,0,0,1-1,1.46l-1,1.3a11,11,0,0,1-1.13,1.3q-1.63,1.95-7.63,13.31t-8.61,17.21a73.52,73.52,0,0,0-3.57,10.07,12,12,0,0,1-1.3,4.06,35.43,35.43,0,0,1-2.11,3.41,12.47,12.47,0,0,1-2.6,2.76,12.8,12.8,0,0,1-3.08,1.79,9.66,9.66,0,0,1-3.58.65,7.25,7.25,0,0,1-5.35-1.79,9.13,9.13,0,0,1-2.44-4.38q-2-6.49,5.52-23.06,12.35-26.31,18.84-36a18.25,18.25,0,0,1,5.52-5.68A12.23,12.23,0,0,1,483,224.72Zm28.57-32.14q3.9,4.86.65,11.36a13.6,13.6,0,0,1-8.77,7.47q-1,.33-8.76,2.27a43.59,43.59,0,0,1-8.77,2.12,10,10,0,0,1-5.52-1.47q-4.56-2.91-2.92-10.06v-.33a13,13,0,0,1,3.73-6.17,17.48,17.48,0,0,1,7-3.89q14.3-4.23,17.54-4.23A7.69,7.69,0,0,1,511.52,192.58Z"/><path class="cls-1" d="M588.49,150a8.18,8.18,0,0,1,6.49,3.08,14.66,14.66,0,0,1,3.25,7.31,24.16,24.16,0,0,1-.33,8.77,11.2,11.2,0,0,1-2.27,5.52V175a12,12,0,0,1-9.09,4.22l-.33.33v.32q-4.22,7.47-14.29,36.86T557,265.32q-9.11,38-12,43.19a15.22,15.22,0,0,1-4.54,5.36,10.2,10.2,0,0,1-5.85,1.78q-4.55,0-6.5-2.6-3.57-4.55-1.29-10.71l.48-1.47c.11-.32.27-.76.49-1.29a10.86,10.86,0,0,0,.49-1.63,8.5,8.5,0,0,1,.48-1.62c.22-.54.43-1.14.65-1.79l.65-2.92a3.8,3.8,0,0,0-1.13.16l-1,.33a3.5,3.5,0,0,1-1.13.16q-18.19,5.21-29.55-.32a18.36,18.36,0,0,1-9.91-10.24q-2.76-7-.81-15.74a50.6,50.6,0,0,1,14-24.68,63,63,0,0,1,26.63-15.59q11.37-3.9,20.13-.33a2.88,2.88,0,0,0,1.3.33q1.29-3.24,3.9-10.72,14.61-43.18,22.41-54.88,5.5-8.11,11.36-9.74h.65A5.52,5.52,0,0,1,588.49,150ZM534.9,245.51q-3.24,0-9.41,2.76a43.47,43.47,0,0,0-10.07,6,15.27,15.27,0,0,0-3.57,3.41,50.4,50.4,0,0,0-2.93,4.23,25.55,25.55,0,0,0-1.94,3.73c-.44,1.52-.65,2.33-.65,2.44a7.36,7.36,0,0,0,.65,1.46l1.94,1.95q5.2,2,14.94,0a65.21,65.21,0,0,0,7.31-2.76,43.4,43.4,0,0,0,5-2.44,58.15,58.15,0,0,0,2.28-6.49l1.62-5.53-1-1.94a11.62,11.62,0,0,1-2-5.85,4,4,0,0,0-1-.65A2.93,2.93,0,0,0,534.9,245.51Z"/><path class="cls-1" d="M608.62,219.53a11.47,11.47,0,0,1,6.5,1.95q9.4,5.84,5.84,20.78a37.17,37.17,0,0,1-4.55,11.2A48.27,48.27,0,0,1,608,263.69a64.38,64.38,0,0,1-6.5,5,41.85,41.85,0,0,1-6.49,3.73,33.9,33.9,0,0,0,4.87.33c1.73,0,3.57-.05,5.52-.17s3.79-.27,5.52-.48q5.52-1,8.12.65a8.36,8.36,0,0,1,3.57,5,10.08,10.08,0,0,1-.32,6.66q-2.93,6.5-8.12,8.44-4.54,1.63-13.48,2.11t-13.8-.81q-11.68-2.6-17.21-11.69-4.54-6.5-4.54-15.91,0-14.62,14.28-30.53Q594,220.51,606,219.53h2.6Zm-7.47,22.73a9,9,0,0,1-1,.81,6.86,6.86,0,0,1-1,.65,7.63,7.63,0,0,0-1,.65c-.44.33-.65.6-.65.81h-.33a25.38,25.38,0,0,0-3.08,2.76,46,46,0,0,0-3.41,3.74l1.3-.65A18.85,18.85,0,0,0,601.15,242.26Z"/></svg>