<svg id="Layer_1" data-name="Layer 1" xmlns="http://www.w3.org/2000/svg" viewBox="0 0 640 480"><defs><style>.cls-1{fill:#3f8bbf;}</style></defs><title>Artboard 1</title><path class="cls-1" d="M189.32,325.25q-.25-1.28,1.53-4.21t11.72-21.91q3.83-7,9.18-17.72,2.81-5.61,11.72-22.68c.26-.42.68-1.21,1.28-2.35s1.38-2.64,2.35-4.46,1.81-3.42,2.49-4.78q1.78-3.45,4-7.71t4.27-8.22c.34-.6.66-1.21,1-1.85a14.16,14.16,0,0,1,.83-1.59c.25-.43.48-.87.7-1.34a7.27,7.27,0,0,1,.57-1.08c-2,.51-4.38,1-7,1.4q-3.69.76-10.07,2.16h-.38a88.64,88.64,0,0,1-8.85,1.6,35.9,35.9,0,0,1-5.93.32c-2.12-.09-3.57-.43-4.33-1-2-1.36-2.42-3.19-1.4-5.48a12.84,12.84,0,0,1,3.25-4.59c1.4-1.28,2.73-1.78,4-1.53h.13a2.37,2.37,0,0,1,1.33.7,4.4,4.4,0,0,1,.9,1.27,3.57,3.57,0,0,1,.32,1.47,1.19,1.19,0,0,0,.12.51q.76-.12,8.6-1.53t15.61-3c5.19-1.06,8.07-1.68,8.67-1.85a15.66,15.66,0,0,0,1.78-3.06q1.15-2.29,7.78-14.65c2.71-5,4.46-8.24,5.22-9.69-1.1.17-2.63.38-4.59.64q-5.34.89-10.45,1.66c-3.39.5-6.33.85-8.79,1a2.09,2.09,0,0,1-.7.13,2,2,0,0,0-.57.07L235,192a2.26,2.26,0,0,1-.51.07,3.07,3.07,0,0,0-.51.06,2.83,2.83,0,0,1-.44.06,2,2,0,0,0-.38.07,1.85,1.85,0,0,1-.39.06,4.18,4.18,0,0,1-1,.19c-.38.05-.87.09-1.47.13s-1.14.06-1.65.06a18.33,18.33,0,0,1-2.55.07,3.28,3.28,0,0,1-1.53-.45l-.13-.13a3.38,3.38,0,0,1-1.72-2.74,4.78,4.78,0,0,1,1.08-3.5,5.11,5.11,0,0,1,1.47-1.21,6.36,6.36,0,0,1,2-.64c.81-.12,2-.23,3.63-.32q3.44-.37,5.54-.57c1.41-.13,3.85-.4,7.33-.83q2.8-.37,11.53-1.78T266,178.83a23.65,23.65,0,0,0,1.66-2.67,106,106,0,0,1,9.3-13.89q4.45-5.47,7.39-6.12a7.48,7.48,0,0,1,2.49-.32,4.71,4.71,0,0,1,2.35.83,5.74,5.74,0,0,1,2.17,2.68,8.37,8.37,0,0,1,0,6.11,5.27,5.27,0,0,1-1,1.41,5.52,5.52,0,0,1-1.4,1,4.26,4.26,0,0,1-3,.19,3.28,3.28,0,0,1-2.23-1.85,64,64,0,0,0-4,5.35q-2.42,3.57-3.69,5.61c.93-.17,2.29-.38,4.08-.64q23.7-3.69,39-2.8a29.06,29.06,0,0,1,3.95.32,2.68,2.68,0,0,1,1.53.95v.13a4.19,4.19,0,0,1,0,5.48,5.75,5.75,0,0,1-2.36,2,30.65,30.65,0,0,1-5.54,1.34c-2.29.51-4.93,1.15-7.9,1.91a25.9,25.9,0,0,1-5,1,3,3,0,0,1-2.42-1.08,3.91,3.91,0,0,1-.77-2.87v-.13q-1.14-.12-12.74,1.15-2.55.39-6.37,1l-6.88,1.15c-2,.34-3.36.59-3.95.76q-.76,1.41-3.95,7.14t-6.5,11.79q-3.32,6-4.33,8.09c.51-.09,1.1-.21,1.78-.38h.38c3.65-.85,7.27-1.62,10.83-2.3s6.84-1.25,9.82-1.72,5.73-.87,8.28-1.21l4.59-.7c2-.3,3.14-.45,3.56-.45q4.34-.37,7.52-.38a7.09,7.09,0,0,0,1.15-.13,15.4,15.4,0,0,1,1.66.07,10.37,10.37,0,0,0,1.21.06,4.94,4.94,0,0,1,.95.06,2.69,2.69,0,0,1,.51.2,5.79,5.79,0,0,1,.64.38,3.69,3.69,0,0,1,1.27,2.87,4.85,4.85,0,0,1-1.14,3.12,4.62,4.62,0,0,1-2.36,1.65,19.68,19.68,0,0,1-4.78.39h-2.23q-1.22,0-2,.06c-.55,0-.95.06-1.21.06-.51.09-1.08.18-1.72.26l-2,.25-2.1.26c-.68.08-1.42.19-2.23.32l-2.17.32-2.23.31c-.85.13-1.48.24-1.91.32s-1,.17-1.72.26-1.17.13-1.34.13q-4.45.75-15.22,2.93t-12.81,2.67q-4.47,7.65-11.72,22.05c-.85,1.53-1.9,3.5-3.13,5.92s-1.93,3.85-2.1,4.27q-6.24,11.73-9.3,17.65T219.27,284c-1.11,2.12-2.09,4-2.93,5.67s-1.47,2.87-1.85,3.63-1.07,2.06-2,3.89-1.68,3.21-2.1,4.14q-11.47,21.4-13.26,24.09a6.88,6.88,0,0,1-3.18,2.86,3.58,3.58,0,0,1-3.57-.57A3.8,3.8,0,0,1,189.32,325.25Z"/><path class="cls-1" d="M267.56,272.62a7.64,7.64,0,0,1-5.6-6.75,11.4,11.4,0,0,1,.38-4.33q.89-4.08,4.84-8.92l.76-1q-10.95,21.66-.12-.13v-.13l-.51.26c0,.08-.05.12-.13.12a4.06,4.06,0,0,1-3.82.13q-2-1.28-1.4-4.08c.16-1.19,1.06-2.67,2.67-4.46a13.54,13.54,0,0,1,4.21-3.44,4.19,4.19,0,0,1,4.33.38,2.87,2.87,0,0,1,.83.64,3.38,3.38,0,0,1,.51.89,4.75,4.75,0,0,1,.25,1,4.86,4.86,0,0,1-.06,1.28v.13a14.88,14.88,0,0,0,2.67-.26,5.5,5.5,0,0,1,1.41-.25h1a2.22,2.22,0,0,1,.77.12,6.21,6.21,0,0,0,.82.26,3.56,3.56,0,0,1,1.66,4.2,3.93,3.93,0,0,1-.7,1.72,6.5,6.5,0,0,1-1.4,1.47c-.56.42-1.17.85-1.85,1.27a21.18,21.18,0,0,0-4.27,3.06,26.51,26.51,0,0,0-3.25,3.44,7.09,7.09,0,0,0-1.46,3.25q-.07,1.22.57,1.47a8.53,8.53,0,0,0,1.34.25,8.65,8.65,0,0,0,2.16,0,5.6,5.6,0,0,0,2-.51,7.44,7.44,0,0,1,2.8-.64,3.25,3.25,0,0,1,2.3,1.22,3.52,3.52,0,0,1,.76,2.61,4.5,4.5,0,0,1-1,2.55,6.12,6.12,0,0,1-2.93,2.29,17.84,17.84,0,0,1-5.48,1.27A12.6,12.6,0,0,1,267.56,272.62Z"/><path class="cls-1" d="M303.24,241.91a4.48,4.48,0,0,1,2.55.77q3.69,2.3,2.29,8.15a14.49,14.49,0,0,1-1.78,4.4,19,19,0,0,1-3.31,4,26.79,26.79,0,0,1-2.55,2,17.67,17.67,0,0,1-2.55,1.46,12.74,12.74,0,0,0,1.91.13c.68,0,1.4,0,2.17-.06s1.48-.11,2.16-.2a4.69,4.69,0,0,1,3.19.26,3.26,3.26,0,0,1,1.4,2,3.9,3.9,0,0,1-.13,2.61,5.8,5.8,0,0,1-3.18,3.31,19.76,19.76,0,0,1-5.29.83,18.21,18.21,0,0,1-5.42-.32,10,10,0,0,1-6.75-4.59,10.61,10.61,0,0,1-1.78-6.24q0-5.73,5.6-12t10.45-6.5h1Zm-2.93,8.92a3,3,0,0,1-.38.32,4.48,4.48,0,0,1-.38.26,2.12,2.12,0,0,0-.39.25c-.17.13-.25.23-.25.32h-.13a10,10,0,0,0-1.21,1.08,19.36,19.36,0,0,0-1.34,1.47l.51-.26A7.39,7.39,0,0,0,300.31,250.83Z"/><path class="cls-1" d="M330.13,241.91a4.53,4.53,0,0,1,2.55.77q3.69,2.3,2.29,8.15a14.49,14.49,0,0,1-1.78,4.4,19.31,19.31,0,0,1-3.31,4,26.79,26.79,0,0,1-2.55,2,17.67,17.67,0,0,1-2.55,1.46,12.74,12.74,0,0,0,1.91.13c.68,0,1.4,0,2.17-.06s1.48-.11,2.16-.2a4.7,4.7,0,0,1,3.19.26,3.3,3.3,0,0,1,1.4,2,4,4,0,0,1-.13,2.61,5.81,5.81,0,0,1-3.19,3.31,19.67,19.67,0,0,1-5.28.83,18.21,18.21,0,0,1-5.42-.32,10,10,0,0,1-6.75-4.59,10.61,10.61,0,0,1-1.79-6.24q0-5.73,5.61-12t10.45-6.5h1Zm-2.93,8.92a3.87,3.87,0,0,1-.38.32l-.39.26a2.57,2.57,0,0,0-.38.25c-.17.13-.25.23-.25.32h-.13a9.26,9.26,0,0,0-1.21,1.08,19.36,19.36,0,0,0-1.34,1.47l.51-.26A7.39,7.39,0,0,0,327.2,250.83Z"/><path class="cls-1" d="M342.23,259.75q2-2.29,4.47-1.27c1.52.68,2.12,2,1.78,4.07v.39a3.54,3.54,0,0,0,1.66-2.11,14.52,14.52,0,0,0,.12-4.52,25.19,25.19,0,0,1,.26-9.05,26.9,26.9,0,0,1,4.84-10.06c2.38-3.15,4.89-5.18,7.52-6.12q3.31-1.14,5.22.13a5.8,5.8,0,0,1,2.42,3.69,11.59,11.59,0,0,1,0,4.85v.12a6.2,6.2,0,0,1-.31.77,7.56,7.56,0,0,1-.45.76,4.35,4.35,0,0,1-.57.7c-.22.22-.45.43-.7.64a9.52,9.52,0,0,1-.77.57,4.66,4.66,0,0,1-.64.26,2.53,2.53,0,0,1-.76.13,2.56,2.56,0,0,1-2.49-.83,4.41,4.41,0,0,1-1.08-2.62l-.13.13a12.56,12.56,0,0,0-3.5,5,12.71,12.71,0,0,0-1.08,6.05c.33,3.14.51,5.1.51,5.86a18.35,18.35,0,0,1-.51,3.44,14.67,14.67,0,0,1-1.91,4.84,12.82,12.82,0,0,1-6.25,5.48c-2.55,1-4.71,1-6.5-.13q-3.94-2.28-2.55-8.15A6.52,6.52,0,0,1,342.23,259.75Z"/><path class="cls-1" d="M377.66,244a3.19,3.19,0,0,1,2.68,1.4,3.63,3.63,0,0,1,.63,3.06,1.62,1.62,0,0,1-.12.57c-.09.22-.18.43-.26.64a4.78,4.78,0,0,1-.32.64c-.13.21-.25.4-.38.57l-.38.51a5.14,5.14,0,0,1-.45.51,45.44,45.44,0,0,0-3,5.23c-1.58,3-2.7,5.22-3.38,6.75a27.72,27.72,0,0,0-1.4,3.95,4.79,4.79,0,0,1-.51,1.59,13.74,13.74,0,0,1-.83,1.34,4.79,4.79,0,0,1-1,1.08,4.64,4.64,0,0,1-1.21.7,3.56,3.56,0,0,1-1.4.26,2.82,2.82,0,0,1-2.1-.7,3.62,3.62,0,0,1-1-1.72q-.76-2.55,2.17-9.05a122.24,122.24,0,0,1,7.39-14.14,7.14,7.14,0,0,1,2.16-2.23A4.8,4.8,0,0,1,377.66,244Zm11.21-12.62a3.87,3.87,0,0,1,.26,4.46,5.38,5.38,0,0,1-3.44,2.94c-.26.08-1.4.38-3.44.89a17.6,17.6,0,0,1-3.44.83,4,4,0,0,1-2.17-.58q-1.78-1.14-1.15-4v-.13a5.21,5.21,0,0,1,1.47-2.42,6.94,6.94,0,0,1,2.74-1.53,37.8,37.8,0,0,1,6.88-1.65A3,3,0,0,1,388.87,231.33Z"/><path class="cls-1" d="M419.07,214.64a3.22,3.22,0,0,1,2.55,1.21,5.75,5.75,0,0,1,1.28,2.87,9.56,9.56,0,0,1-.13,3.44,4.45,4.45,0,0,1-.89,2.17v.12a4.71,4.71,0,0,1-3.57,1.66l-.13.13v.13q-1.65,2.92-5.6,14.46t-5.87,19q-3.57,14.91-4.71,16.95a6,6,0,0,1-1.79,2.1,3.92,3.92,0,0,1-2.29.7,3,3,0,0,1-2.55-1,4.11,4.11,0,0,1-.51-4.2c.09-.26.15-.45.19-.58s.11-.3.2-.51a5,5,0,0,0,.19-.63,2.94,2.94,0,0,1,.19-.64c.08-.21.17-.45.25-.7l.26-1.15a1.53,1.53,0,0,0-.45.06l-.38.13a1.25,1.25,0,0,1-.45.07q-7.14,2-11.59-.13a7.2,7.2,0,0,1-3.89-4,10.4,10.4,0,0,1-.32-6.18,19.89,19.89,0,0,1,5.48-9.68A24.82,24.82,0,0,1,395,244.33a11,11,0,0,1,7.9-.12,1.19,1.19,0,0,0,.51.12q.51-1.28,1.53-4.2,5.73-16.95,8.79-21.54c1.45-2.12,2.93-3.39,4.46-3.82h.26A2.2,2.2,0,0,1,419.07,214.64Zm-21,37.47a10.16,10.16,0,0,0-3.7,1.08,17,17,0,0,0-4,2.36,5.84,5.84,0,0,0-1.4,1.33,19.91,19.91,0,0,0-1.15,1.66,9.47,9.47,0,0,0-.76,1.47c-.17.59-.26.91-.26.95a3.13,3.13,0,0,0,.26.58l.76.76a11.2,11.2,0,0,0,5.87,0,28.37,28.37,0,0,0,2.86-1.08,18.71,18.71,0,0,0,2-1,24.57,24.57,0,0,0,.89-2.55l.64-2.16-.38-.77a4.57,4.57,0,0,1-.77-2.29,1.55,1.55,0,0,0-.38-.26A1.19,1.19,0,0,0,398.05,252.11Z"/><path class="cls-1" d="M427,241.91a4.48,4.48,0,0,1,2.55.77q3.71,2.3,2.3,8.15a14.52,14.52,0,0,1-1.79,4.4,19,19,0,0,1-3.31,4,25.58,25.58,0,0,1-2.55,2,16.66,16.66,0,0,1-2.55,1.46,12.84,12.84,0,0,0,1.91.13c.68,0,1.41,0,2.17-.06s1.49-.11,2.17-.2a4.67,4.67,0,0,1,3.18.26,3.26,3.26,0,0,1,1.4,2,3.9,3.9,0,0,1-.12,2.61,5.84,5.84,0,0,1-3.19,3.31,19.76,19.76,0,0,1-5.29.83,18.11,18.11,0,0,1-5.41-.32,10.05,10.05,0,0,1-6.76-4.59,10.61,10.61,0,0,1-1.78-6.24q0-5.73,5.61-12t10.45-6.5h1ZM424,250.83a3,3,0,0,1-.38.32,4.48,4.48,0,0,1-.38.26,2.13,2.13,0,0,0-.38.25c-.17.13-.26.23-.26.32h-.13a10.82,10.82,0,0,0-1.21,1.08,17.12,17.12,0,0,0-1.33,1.47l.51-.26A7.41,7.41,0,0,0,424,250.83Z"/></svg>